<svg width="200" height="49" viewBox="0 0 200 49" fill="none" xmlns="http://www.w3.org/2000/svg">
<g clip-path="url(#clip0_894_15553)">
<path d="M44.9789 0C44.9583 0.053203 37.8586 17.1068 36.1226 21.2812C35.2772 17.5652 32.8518 15.2897 29.2198 14.8518C24.525 14.283 18.8698 16.9881 16.5347 20.7042C17.1092 15.8586 19.0052 0 19.0052 0H1.74006L0 4.91514L6.07379 5.02564C6.07379 5.02564 5.27353 31.8113 5.27353 31.8277C5.27353 31.8277 5.27353 31.8318 5.27353 31.8359C5.27353 33.5138 6.33644 34.5615 8.31863 34.5615C9.0286 34.5615 13.2556 34.6393 15.2296 34.6679C15.8657 34.6761 16.4731 34.4101 16.8917 33.9354C18.4758 32.0896 20.5154 28.2099 25.0174 26.7775C25.0174 26.7775 27.6809 27.7556 30.4551 33.7553C30.7793 34.4551 31.5632 34.8275 32.3388 34.8234C34.4605 34.8193 38.4947 34.7989 38.4947 34.7989C39.9146 34.7989 41.8271 33.0432 43.247 29.9042C46.4193 22.8937 56.515 0 56.515 0H44.9789Z" fill="white"/>
<path fill-rule="evenodd" clip-rule="evenodd" d="M15.8698 38.4904C18.7794 38.4904 21.1392 40.8436 21.1392 43.7452C21.1392 46.6468 18.7794 49 15.8698 49C12.9601 49 10.6003 46.6468 10.6003 43.7452C10.6003 40.8436 12.9601 38.4904 15.8698 38.4904Z" fill="white"/>
<path fill-rule="evenodd" clip-rule="evenodd" d="M33.3442 38.4904C36.2498 38.4904 38.6137 40.8436 38.6137 43.7452C38.6137 46.6468 36.2539 49 33.3442 49C30.4346 49 28.0748 46.6468 28.0748 43.7452C28.0748 40.8436 30.4346 38.4904 33.3442 38.4904Z" fill="white"/>
<path d="M64.7393 24.3834V22.2471L72.7419 10.833H65.3015V8.56569H76.0414V10.5956L67.9567 22.1161H76.5339V24.3834H64.7393Z" fill="white"/>
<path d="M81.9346 24.5839C81.2738 24.5839 80.6665 24.4611 80.1124 24.2156C79.5584 23.97 79.1152 23.5976 78.7746 23.0983C78.438 22.599 78.2698 21.981 78.2698 21.2362C78.2698 20.1926 78.5899 19.4068 79.2301 18.8748C79.8703 18.3428 80.7691 17.9785 81.9305 17.7821C83.0878 17.5857 84.4462 17.4752 86.0015 17.4547V16.7508C86.0015 15.8954 85.7881 15.3102 85.3654 14.9869C84.9427 14.6636 84.4051 14.504 83.7526 14.504C83.0467 14.504 82.4558 14.6759 81.9838 15.0196C81.5119 15.3634 81.2779 15.9159 81.2779 16.6771H78.8607C78.8607 15.7195 79.0659 14.9541 79.4804 14.3812C79.8949 13.8041 80.4654 13.3867 81.2 13.1289C81.9346 12.871 82.7841 12.7401 83.7526 12.7401C84.4051 12.7401 85.0166 12.7974 85.5912 12.9161C86.1657 13.0347 86.6705 13.2394 87.1055 13.534C87.5405 13.8287 87.8852 14.2298 88.1315 14.7454C88.3777 15.2611 88.5008 15.9159 88.5008 16.7139V24.3915H86.1206L86.0262 22.7832C85.5214 23.3479 84.9345 23.7899 84.2656 24.1092C83.5925 24.4325 82.8169 24.5921 81.9387 24.5921M82.702 22.775C83.3956 22.775 84.0235 22.6072 84.5898 22.2716C85.1561 21.936 85.6199 21.5227 85.981 21.0357V18.9567C84.1096 18.9648 82.7841 19.1367 81.9961 19.4723C81.2082 19.8079 80.8183 20.3522 80.8183 21.1052C80.8183 21.6373 80.9866 22.0506 81.319 22.3412C81.6514 22.6318 82.1151 22.775 82.7061 22.775" fill="white"/>
<path d="M93.2367 11.0908C92.7565 11.0908 92.3872 10.9639 92.1286 10.7143C91.8701 10.4646 91.7388 10.1495 91.7388 9.77299C91.7388 9.39647 91.8701 9.06089 92.1286 8.80715C92.3872 8.5575 92.7565 8.43064 93.2367 8.43064C93.7169 8.43064 94.0739 8.5575 94.3407 8.80715C94.6033 9.05679 94.7346 9.37601 94.7346 9.76071C94.7346 10.1454 94.6033 10.4605 94.3407 10.7143C94.078 10.9639 93.7087 11.0908 93.2367 11.0908ZM91.9522 12.9242H94.5089V24.3834H91.9522V12.9242Z" fill="white"/>
<path d="M98.0712 24.3834V12.9242H100.521L100.579 14.6636C100.956 14.1848 101.465 13.7509 102.114 13.354C102.758 12.957 103.587 12.7605 104.6 12.7605C105.819 12.7605 106.73 13.1248 107.342 13.8492C107.949 14.5735 108.253 15.609 108.253 16.9595V24.3875H105.709V17.2992C105.709 16.8122 105.651 16.3824 105.532 16.01C105.413 15.6376 105.216 15.347 104.937 15.1424C104.658 14.9337 104.276 14.8314 103.788 14.8314C103.049 14.8314 102.421 15.0033 101.908 15.3429C101.391 15.6826 100.969 16.0714 100.628 16.5011V24.3875H98.0712V24.3834Z" fill="white"/>
<path d="M119.416 24.3834V10.833H115.041V8.56569H126.487V10.833H122.136V24.3834H119.416Z" fill="white"/>
<path d="M129.716 24.5839C129.056 24.5839 128.448 24.4611 127.894 24.2156C127.34 23.97 126.897 23.5976 126.556 23.0983C126.22 22.599 126.052 21.981 126.052 21.2362C126.052 20.1926 126.372 19.4068 127.012 18.8748C127.652 18.3428 128.551 17.9785 129.712 17.7821C130.87 17.5857 132.228 17.4752 133.783 17.4547V16.7508C133.783 15.8954 133.57 15.3102 133.147 14.9869C132.725 14.6636 132.187 14.504 131.534 14.504C130.829 14.504 130.238 14.6759 129.766 15.0196C129.294 15.3634 129.06 15.9159 129.06 16.6771H126.643C126.643 15.7195 126.848 14.9541 127.262 14.3812C127.677 13.8041 128.247 13.3867 128.982 13.1289C129.716 12.871 130.566 12.7401 131.534 12.7401C132.187 12.7401 132.798 12.7974 133.373 12.9161C133.948 13.0347 134.452 13.2394 134.887 13.534C135.322 13.8287 135.667 14.2298 135.913 14.7454C136.16 15.2611 136.283 15.9159 136.283 16.7139V24.3915H133.902L133.808 22.7832C133.303 23.3479 132.716 23.7899 132.047 24.1092C131.374 24.4325 130.599 24.5921 129.721 24.5921M130.484 22.775C131.177 22.775 131.805 22.6072 132.372 22.2716C132.938 21.936 133.402 21.5227 133.763 21.0357V18.9567C131.892 18.9648 130.566 19.1367 129.778 19.4723C128.99 19.8079 128.6 20.3522 128.6 21.1052C128.6 21.6373 128.768 22.0506 129.101 22.3412C129.433 22.6318 129.897 22.775 130.488 22.775" fill="white"/>
<path d="M141.634 24.3834L137.978 12.9242H140.596L143.058 21.6004L145.545 12.9242H148.278L150.802 21.5882L153.244 12.9242H155.694L152.054 24.3834H149.411L146.842 15.6049L144.273 24.3834H141.634Z" fill="white"/>
<path d="M161.739 24.5962C161.095 24.5962 160.475 24.5307 159.884 24.4038C159.289 24.2729 158.76 24.0601 158.292 23.7613C157.824 23.4625 157.455 23.0697 157.184 22.5745C156.913 22.0793 156.778 21.4736 156.778 20.7533H159.182C159.182 21.5227 159.433 22.0588 159.938 22.3657C160.442 22.6727 161.05 22.8241 161.764 22.8241C162.441 22.8241 162.983 22.7054 163.389 22.464C163.799 22.2266 164 21.8296 164 21.273C164 20.7778 163.791 20.4136 163.377 20.168C162.962 19.9266 162.236 19.6851 161.198 19.4518C160.34 19.239 159.601 18.9976 158.977 18.7234C158.353 18.4492 157.873 18.089 157.541 17.6348C157.209 17.1846 157.04 16.6075 157.04 15.8995C157.04 15.3511 157.163 14.8764 157.41 14.4753C157.656 14.0783 157.992 13.7468 158.419 13.489C158.846 13.2312 159.33 13.0388 159.88 12.912C160.43 12.7851 161.013 12.7237 161.624 12.7237C162.236 12.7237 162.782 12.7892 163.332 12.9161C163.881 13.047 164.374 13.2557 164.805 13.5463C165.236 13.8369 165.58 14.2175 165.831 14.6881C166.081 15.1588 166.208 15.7358 166.208 16.4152H163.816C163.816 15.7195 163.598 15.2243 163.167 14.9419C162.732 14.6554 162.219 14.5122 161.624 14.5122C160.996 14.5122 160.496 14.6145 160.122 14.8191C159.749 15.0237 159.564 15.3511 159.564 15.8054C159.564 16.0632 159.663 16.2842 159.86 16.4684C160.057 16.6526 160.377 16.8203 160.82 16.9718C161.263 17.1232 161.858 17.2869 162.605 17.4588C163.405 17.647 164.103 17.8803 164.69 18.1586C165.281 18.4369 165.732 18.8011 166.052 19.2513C166.368 19.7015 166.528 20.2867 166.528 21.007C166.528 21.6495 166.401 22.1979 166.147 22.6522C165.892 23.1065 165.544 23.4748 165.104 23.7613C164.665 24.0478 164.156 24.2565 163.578 24.3915C162.999 24.5225 162.388 24.5921 161.743 24.5921" fill="white"/>
<path d="M174.342 24.5962C173.087 24.5962 172.04 24.3465 171.203 23.8513C170.366 23.352 169.738 22.6563 169.323 21.76C168.909 20.8638 168.699 19.8202 168.699 18.6374C168.699 17.4547 168.901 16.4111 169.307 15.5271C169.713 14.6472 170.316 13.9597 171.121 13.4686C171.925 12.9774 172.935 12.736 174.145 12.736C175.779 12.736 177.067 13.223 178.011 14.1929C178.955 15.1629 179.427 16.5502 179.427 18.355C179.427 18.4655 179.423 18.6006 179.411 18.7602C179.398 18.9198 179.386 19.0344 179.37 19.1081H171.248C171.256 19.7588 171.363 20.3563 171.572 20.9006C171.782 21.4449 172.114 21.8828 172.569 22.2102C173.025 22.5376 173.62 22.7054 174.351 22.7054C175.134 22.7054 175.754 22.5294 176.201 22.1816C176.649 21.8337 176.887 21.318 176.907 20.6346H179.419C179.378 21.4817 179.148 22.202 178.729 22.7914C178.311 23.3848 177.728 23.8309 176.985 24.1378C176.242 24.4447 175.364 24.5962 174.351 24.5962M171.264 17.4015H176.887C176.862 16.4766 176.608 15.7727 176.115 15.2897C175.623 14.8068 174.966 14.5654 174.141 14.5654C173.316 14.5654 172.619 14.8068 172.118 15.2938C171.617 15.7808 171.334 16.4807 171.264 17.3974" fill="white"/>
<path d="M187.413 24.5962C186.158 24.5962 185.111 24.3465 184.274 23.8513C183.437 23.352 182.809 22.6563 182.394 21.76C181.976 20.8638 181.771 19.8202 181.771 18.6374C181.771 17.4547 181.972 16.4111 182.378 15.5271C182.784 14.6472 183.387 13.9597 184.192 13.4686C184.996 12.9774 186.006 12.736 187.216 12.736C188.85 12.736 190.138 13.223 191.082 14.1929C192.026 15.1629 192.498 16.5502 192.498 18.355C192.498 18.4655 192.494 18.6006 192.482 18.7602C192.469 18.9198 192.457 19.0344 192.441 19.1081H184.319C184.327 19.7588 184.434 20.3563 184.643 20.9006C184.853 21.4449 185.185 21.8828 185.64 22.2102C186.096 22.5376 186.687 22.7054 187.422 22.7054C188.205 22.7054 188.825 22.5294 189.272 22.1816C189.72 21.8337 189.958 21.318 189.978 20.6346H192.49C192.449 21.4817 192.219 22.202 191.8 22.7914C191.378 23.3848 190.799 23.8309 190.056 24.1378C189.313 24.4447 188.435 24.5962 187.422 24.5962M184.335 17.4015H189.958C189.933 16.4766 189.679 15.7727 189.186 15.2897C188.694 14.8068 188.037 14.5654 187.212 14.5654C186.387 14.5654 185.69 14.8068 185.189 15.2938C184.688 15.7808 184.405 16.4807 184.335 17.3974" fill="white"/>
<path d="M199.27 24.3834C198.215 24.3834 197.406 24.2401 196.836 23.9536C196.265 23.6672 195.876 23.2415 195.658 22.6727C195.441 22.1038 195.334 21.3917 195.334 20.5405V8.5616H197.878V20.3849C197.878 21.0438 197.964 21.539 198.137 21.8705C198.309 22.202 198.724 22.3698 199.376 22.3698H200V24.3793H199.27V24.3834Z" fill="white"/>
<path d="M68.4738 40.7167C67.6694 40.7167 67.0005 40.5489 66.467 40.2174C65.9335 39.8859 65.5313 39.4234 65.2645 38.8382C64.9978 38.253 64.8665 37.5736 64.8665 36.8083C64.8665 36.043 64.9978 35.3596 65.2645 34.7702C65.5313 34.1809 65.9335 33.7184 66.467 33.387C67.0005 33.0555 67.6694 32.8877 68.4738 32.8877C68.8637 32.8877 69.233 32.9368 69.586 33.035C69.9389 33.1332 70.2508 33.2805 70.534 33.477C70.8171 33.6734 71.0469 33.919 71.2234 34.2177C71.3999 34.5124 71.5107 34.8603 71.5517 35.2572H70.8294C70.7884 34.9462 70.6694 34.6597 70.4724 34.3855C70.2754 34.1154 70.0087 33.8985 69.6721 33.7266C69.3356 33.5588 68.9334 33.4729 68.4738 33.4729C67.8008 33.4729 67.2508 33.6202 66.824 33.9149C66.4013 34.2096 66.0894 34.6106 65.8924 35.1099C65.6954 35.6133 65.597 36.1781 65.597 36.8042C65.597 37.4304 65.6954 37.987 65.8924 38.4863C66.0894 38.9855 66.4013 39.3784 66.824 39.669C67.2467 39.9596 67.7967 40.1028 68.4738 40.1028C69.0853 40.1028 69.5777 39.9923 69.9594 39.7672C70.3411 39.5462 70.6201 39.2352 70.7966 38.8382C70.9731 38.4412 71.0634 37.9829 71.0634 37.4672H68.6215V36.837H71.7651V37.3363C71.7651 37.9992 71.6461 38.5886 71.4081 39.096C71.1701 39.6035 70.8089 40.0005 70.3206 40.287C69.8363 40.5735 69.2207 40.7167 68.4738 40.7167Z" fill="white"/>
<path d="M74.9743 33.9067C74.843 33.9067 74.7322 33.8658 74.6419 33.7798C74.5516 33.6939 74.5065 33.5875 74.5065 33.4524C74.5065 33.3174 74.5516 33.211 74.6419 33.1209C74.7322 33.0309 74.843 32.9859 74.9743 32.9859C75.1056 32.9859 75.2123 33.0309 75.3026 33.1209C75.3929 33.211 75.4381 33.3215 75.4381 33.4524C75.4381 33.5834 75.3929 33.6939 75.3026 33.7798C75.2123 33.8658 75.1015 33.9067 74.9743 33.9067ZM74.6378 35.1017H75.3149V40.6144H74.6378V35.1017Z" fill="white"/>
<path d="M78.6801 40.6144V35.6747H77.7485V35.1017H78.6801V34.7129C78.6801 34.4592 78.7006 34.2259 78.7376 34.0172C78.7745 33.8044 78.8443 33.6243 78.9469 33.4688C79.0454 33.3174 79.189 33.1987 79.3737 33.1168C79.5584 33.035 79.7964 32.9941 80.0919 32.9941H80.6828V33.567H80.1616C79.8005 33.567 79.5748 33.6693 79.4804 33.874C79.3901 34.0786 79.3409 34.3692 79.3409 34.7375V35.1058H80.6828V35.6788H79.3409V40.6185H78.6801V40.6144Z" fill="white"/>
<path d="M84.7089 40.6144C84.319 40.6144 84.0235 40.5407 83.8183 40.3975C83.6172 40.2542 83.4777 40.0496 83.4079 39.7918C83.334 39.534 83.3012 39.2352 83.3012 38.8996V35.6747H82.3696V35.1017H83.3012V33.8617H83.9619V35.1017H85.4065V35.6747H83.9619V38.8751C83.9619 39.2434 84.0071 39.5339 84.1015 39.7386C84.1959 39.9432 84.4216 40.0455 84.7786 40.0455H85.4147V40.6144H84.7089Z" fill="white"/>
<path d="M94.8619 40.7167C94.0575 40.7167 93.3885 40.5489 92.855 40.2133C92.3215 39.8777 91.9194 39.4153 91.6526 38.8259C91.3858 38.2366 91.2545 37.5654 91.2545 36.8042C91.2545 36.043 91.3858 35.3718 91.6526 34.7825C91.9194 34.1932 92.3215 33.7307 92.855 33.391C93.3885 33.0514 94.0575 32.8836 94.8619 32.8836C95.3461 32.8836 95.8099 32.9695 96.2531 33.1373C96.6963 33.3092 97.0698 33.5711 97.3734 33.9231C97.6771 34.2791 97.8618 34.7375 97.9275 35.2941H97.2052C97.1559 34.8766 97.0164 34.5329 96.7825 34.2628C96.5486 33.9926 96.2613 33.7962 95.9248 33.6652C95.5841 33.5343 95.2312 33.4688 94.8577 33.4688C94.1847 33.4688 93.6389 33.6161 93.2203 33.9149C92.8017 34.2136 92.498 34.6106 92.3051 35.114C92.1122 35.6174 92.0178 36.1781 92.0178 36.8042C92.0178 37.4304 92.1122 37.9829 92.3051 38.4863C92.498 38.9855 92.8017 39.3825 93.2203 39.6772C93.6389 39.9718 94.1847 40.1151 94.8577 40.1151C95.5308 40.1151 96.0725 39.9514 96.4952 39.6281C96.922 39.3048 97.1683 38.8096 97.238 38.1425H97.9726C97.9029 38.7318 97.7223 39.2147 97.4268 39.5953C97.1313 39.9759 96.762 40.2542 96.3146 40.4384C95.8673 40.6226 95.3831 40.7126 94.8577 40.7126" fill="white"/>
<path d="M102.191 40.7167C101.871 40.7167 101.58 40.6594 101.321 40.5366C101.063 40.4179 100.858 40.242 100.71 40.0087C100.558 39.7754 100.484 39.4889 100.484 39.1493C100.484 38.6622 100.64 38.2898 100.952 38.0361C101.264 37.7823 101.707 37.6064 102.286 37.5122C102.86 37.4181 103.542 37.369 104.321 37.3649V36.9352C104.321 36.4113 104.186 36.0471 103.919 35.8507C103.652 35.6542 103.316 35.5519 102.918 35.5519C102.495 35.5519 102.134 35.6624 101.834 35.8793C101.539 36.0962 101.387 36.4359 101.387 36.9024H100.718C100.718 36.4605 100.813 36.1003 101.001 35.8179C101.19 35.5355 101.453 35.3309 101.781 35.1959C102.114 35.0649 102.491 34.9994 102.914 34.9994C103.16 34.9994 103.406 35.024 103.648 35.0772C103.895 35.1263 104.116 35.2245 104.317 35.3596C104.518 35.4987 104.683 35.6951 104.806 35.9448C104.929 36.1985 104.99 36.53 104.99 36.9352V40.6144H104.367L104.334 39.7181C104.067 40.0046 103.763 40.242 103.414 40.4302C103.066 40.6185 102.659 40.7126 102.191 40.7126M102.319 40.1519C102.746 40.1519 103.127 40.0578 103.464 39.8614C103.8 39.6649 104.083 39.4153 104.317 39.096V37.8683C103.201 37.8806 102.393 37.9829 101.896 38.1752C101.399 38.3717 101.153 38.6868 101.153 39.1288C101.153 39.4275 101.248 39.6731 101.44 39.8614C101.633 40.0537 101.925 40.1478 102.319 40.1478" fill="white"/>
<path d="M108.126 40.6144V35.1017H108.745L108.778 36.0307C108.942 35.7688 109.156 35.5396 109.431 35.335C109.702 35.1345 110.067 35.0322 110.527 35.0322H110.641V35.7074H110.518C110.215 35.7074 109.96 35.7524 109.747 35.8384C109.537 35.9243 109.357 36.0389 109.209 36.1822C109.061 36.3254 108.926 36.4768 108.807 36.6405V40.6185H108.13L108.126 40.6144Z" fill="white"/>
<path d="M114.782 40.7167C114.314 40.7167 113.921 40.6062 113.588 40.3893C113.26 40.1683 113.005 39.845 112.833 39.4194C112.661 38.9937 112.57 38.4699 112.57 37.856C112.57 37.2421 112.661 36.7142 112.845 36.2886C113.03 35.8629 113.293 35.5437 113.641 35.3268C113.986 35.1099 114.405 35.0035 114.893 35.0035C115.291 35.0035 115.64 35.0935 115.94 35.2736C116.239 35.4537 116.481 35.6992 116.666 36.0144V32.9941H117.335V40.6226H116.711L116.666 39.8122C116.469 40.0783 116.21 40.2952 115.894 40.467C115.574 40.6389 115.205 40.7249 114.782 40.7249M114.852 40.1274C115.304 40.1274 115.673 40.0291 115.96 39.8327C116.247 39.6363 116.485 39.3948 116.67 39.1083V36.7265C116.498 36.3909 116.276 36.1167 116.005 35.9039C115.73 35.6911 115.386 35.5846 114.971 35.5846C114.401 35.5846 113.974 35.7811 113.691 36.1781C113.412 36.5709 113.272 37.1316 113.272 37.8519C113.272 38.5722 113.403 39.137 113.666 39.5339C113.929 39.9309 114.323 40.1274 114.852 40.1274Z" fill="white"/>
<path d="M126.302 40.6962C125.822 40.6962 125.395 40.6062 125.022 40.4261C124.648 40.246 124.357 39.9964 124.143 39.6772C123.93 39.358 123.823 38.9855 123.823 38.5681C123.823 38.1138 123.926 37.7332 124.131 37.4304C124.336 37.1234 124.599 36.8656 124.919 36.6528C125.239 36.44 125.563 36.2435 125.904 36.0594H125.978C126.24 35.912 126.478 35.7606 126.696 35.6092C126.913 35.4578 127.09 35.2818 127.217 35.0894C127.348 34.8971 127.414 34.6679 127.414 34.3978C127.414 34.1154 127.328 33.8862 127.156 33.7144C126.983 33.5425 126.758 33.4565 126.474 33.4565C126.162 33.4565 125.916 33.5425 125.727 33.7103C125.539 33.8781 125.444 34.1072 125.444 34.3978C125.444 34.6515 125.522 34.9012 125.682 35.1508C125.838 35.4005 126.08 35.7115 126.4 36.0798L130.361 40.6185H129.507L125.875 36.4523C125.555 36.0839 125.292 35.7402 125.095 35.4128C124.898 35.0854 124.796 34.7416 124.796 34.3855C124.796 34.0704 124.874 33.8044 125.026 33.5793C125.178 33.3583 125.383 33.1864 125.637 33.0677C125.892 32.9491 126.171 32.8877 126.47 32.8877C126.77 32.8877 127.061 32.9531 127.299 33.0882C127.537 33.2232 127.726 33.4033 127.857 33.6284C127.993 33.8535 128.058 34.1113 128.058 34.3937C128.058 34.7375 127.985 35.0281 127.833 35.2736C127.685 35.5151 127.488 35.7279 127.25 35.9039C127.012 36.0839 126.758 36.2558 126.487 36.4154H126.4C126.031 36.6119 125.711 36.8042 125.436 36.9925C125.161 37.1807 124.944 37.3935 124.788 37.6391C124.632 37.8847 124.554 38.1916 124.554 38.564C124.554 38.9855 124.701 39.3498 124.993 39.6526C125.284 39.9555 125.715 40.1069 126.29 40.1069C126.774 40.1069 127.213 40.0005 127.603 39.7877C127.993 39.5749 128.284 39.3007 128.477 38.9528C128.633 38.6827 128.752 38.3758 128.83 38.0402C128.912 37.7046 128.953 37.3281 128.953 36.9106H129.688C129.688 37.2053 129.655 37.5081 129.593 37.8192C129.532 38.1302 129.441 38.4249 129.327 38.7073C129.212 38.9896 129.076 39.2393 128.92 39.4521C128.633 39.8532 128.26 40.1601 127.808 40.3729C127.357 40.5857 126.848 40.6921 126.29 40.6921" fill="white"/>
<path d="M135.4 40.6144L138.322 32.9859H139.106L141.963 40.6144H141.207L140.395 38.2448H137.021L136.16 40.6144H135.404H135.4ZM137.243 37.6227H140.153L138.708 33.7184L137.243 37.6227Z" fill="white"/>
<path d="M146.382 40.7167C145.89 40.7167 145.459 40.6103 145.094 40.3934C144.724 40.1765 144.441 39.8573 144.236 39.4316C144.031 39.006 143.928 38.4822 143.928 37.8642C143.928 37.2462 144.031 36.7142 144.236 36.2886C144.441 35.8629 144.728 35.5396 145.094 35.3227C145.459 35.1058 145.89 34.9953 146.382 34.9953C146.793 34.9953 147.158 35.0608 147.482 35.1918C147.806 35.3227 148.065 35.5233 148.262 35.7934C148.455 36.0635 148.566 36.4032 148.582 36.8124H147.905C147.872 36.4195 147.724 36.1126 147.462 35.8916C147.199 35.6706 146.846 35.5601 146.403 35.5601C145.816 35.5601 145.373 35.7606 145.073 36.1658C144.774 36.571 144.626 37.1357 144.626 37.8601C144.626 38.343 144.692 38.7564 144.823 39.096C144.954 39.4357 145.155 39.6977 145.418 39.8736C145.685 40.0537 146.009 40.1437 146.403 40.1437C146.846 40.1437 147.207 40.0332 147.49 39.8122C147.774 39.5912 147.921 39.2598 147.938 38.8218H148.615C148.603 39.2475 148.496 39.6035 148.295 39.8818C148.094 40.1601 147.827 40.3688 147.495 40.5039C147.162 40.6389 146.789 40.7085 146.382 40.7085" fill="white"/>
<path d="M153.609 40.7167C153.117 40.7167 152.686 40.6103 152.321 40.3934C151.951 40.1765 151.668 39.8573 151.463 39.4316C151.258 39.006 151.155 38.4822 151.155 37.8642C151.155 37.2462 151.258 36.7142 151.463 36.2886C151.668 35.8629 151.956 35.5396 152.321 35.3227C152.686 35.1058 153.117 34.9953 153.609 34.9953C154.02 34.9953 154.385 35.0608 154.709 35.1918C155.033 35.3227 155.292 35.5233 155.489 35.7934C155.682 36.0635 155.793 36.4032 155.809 36.8124H155.132C155.099 36.4195 154.951 36.1126 154.689 35.8916C154.426 35.6706 154.073 35.5601 153.634 35.5601C153.047 35.5601 152.604 35.7606 152.304 36.1658C152.005 36.571 151.857 37.1357 151.857 37.8601C151.857 38.343 151.923 38.7564 152.054 39.096C152.185 39.4357 152.386 39.6977 152.649 39.8736C152.916 40.0537 153.24 40.1437 153.634 40.1437C154.077 40.1437 154.438 40.0332 154.722 39.8122C155.005 39.5912 155.152 39.2598 155.169 38.8218H155.846C155.834 39.2475 155.727 39.6035 155.526 39.8818C155.325 40.1601 155.058 40.3688 154.726 40.5039C154.393 40.6389 154.02 40.7085 153.614 40.7085" fill="white"/>
<path d="M160.886 40.7167C160.295 40.7167 159.815 40.5857 159.449 40.3238C159.08 40.0619 158.813 39.714 158.641 39.2802C158.468 38.8464 158.386 38.3758 158.386 37.8642C158.386 37.3117 158.468 36.8206 158.633 36.3909C158.797 35.9612 159.055 35.6215 159.404 35.3718C159.753 35.1222 160.208 34.9994 160.767 34.9994C161.481 34.9994 162.043 35.2204 162.445 35.6583C162.847 36.1003 163.048 36.7306 163.048 37.5613C163.048 37.6268 163.048 37.6964 163.04 37.7742C163.04 37.8519 163.032 37.9051 163.024 37.9379H159.051C159.051 38.343 159.113 38.7154 159.236 39.051C159.359 39.3907 159.556 39.6608 159.823 39.8614C160.094 40.0619 160.442 40.1642 160.882 40.1642C161.353 40.1642 161.723 40.0537 161.985 39.8286C162.248 39.6035 162.384 39.2802 162.396 38.8546H163.061C163.052 39.2229 162.962 39.5421 162.79 39.8245C162.613 40.1028 162.367 40.3238 162.047 40.4834C161.723 40.643 161.337 40.7208 160.886 40.7208M159.055 37.369H162.384C162.371 36.796 162.228 36.35 161.953 36.0389C161.678 35.7238 161.28 35.5683 160.767 35.5683C160.254 35.5683 159.839 35.7238 159.56 36.0307C159.277 36.3377 159.109 36.7838 159.055 37.369Z" fill="white"/>
<path d="M167.702 40.7167C167.386 40.7167 167.095 40.6799 166.828 40.6062C166.561 40.5325 166.327 40.4179 166.126 40.2665C165.929 40.111 165.773 39.9186 165.663 39.6772C165.552 39.4398 165.498 39.1533 165.498 38.8178H166.176C166.176 39.3089 166.319 39.6567 166.615 39.8573C166.906 40.0578 167.28 40.1601 167.739 40.1601C168.133 40.1601 168.466 40.0783 168.736 39.9186C169.007 39.759 169.143 39.493 169.143 39.1288C169.143 38.8259 169.032 38.6009 168.81 38.4535C168.589 38.3062 168.195 38.167 167.632 38.0361C167.181 37.9256 166.812 37.8069 166.524 37.6718C166.237 37.5409 166.024 37.3772 165.892 37.1766C165.757 36.9802 165.691 36.7387 165.691 36.4441C165.691 36.2231 165.736 36.0226 165.827 35.8425C165.917 35.6624 166.048 35.511 166.217 35.3841C166.389 35.2572 166.594 35.1631 166.832 35.0935C167.07 35.0281 167.341 34.9953 167.641 34.9953C167.94 34.9953 168.203 35.0322 168.449 35.1058C168.695 35.1795 168.913 35.29 169.098 35.4414C169.282 35.5887 169.426 35.777 169.524 36.0062C169.627 36.2313 169.68 36.4973 169.68 36.8042H169.003C169.003 36.3581 168.872 36.0389 168.609 35.8507C168.347 35.6583 168.022 35.5642 167.641 35.5642C167.259 35.5642 166.947 35.6379 166.701 35.7811C166.459 35.9243 166.336 36.1494 166.336 36.4482C166.336 36.6201 166.385 36.7592 166.479 36.8738C166.574 36.9884 166.738 37.0866 166.964 37.1766C167.193 37.2667 167.505 37.3567 167.903 37.4549C168.347 37.5613 168.708 37.6841 168.987 37.8192C169.266 37.9583 169.471 38.1302 169.598 38.3389C169.725 38.5476 169.791 38.8137 169.791 39.137C169.791 39.403 169.742 39.6322 169.639 39.8327C169.537 40.0332 169.397 40.1969 169.208 40.3279C169.024 40.4589 168.802 40.5571 168.548 40.6185C168.293 40.684 168.01 40.7126 167.698 40.7126" fill="white"/>
<path d="M174.695 40.7085C174.166 40.7085 173.714 40.5939 173.349 40.3647C172.98 40.1356 172.705 39.8082 172.512 39.3825C172.323 38.9569 172.229 38.4535 172.229 37.8724C172.229 37.2912 172.323 36.7674 172.512 36.3377C172.701 35.908 172.98 35.5765 173.349 35.3432C173.719 35.1099 174.166 34.9953 174.695 34.9953C175.225 34.9953 175.709 35.1099 176.087 35.3432C176.464 35.5765 176.751 35.908 176.948 36.3377C177.145 36.7674 177.244 37.279 177.244 37.8724C177.244 38.4658 177.145 38.9569 176.948 39.3825C176.751 39.8082 176.464 40.1356 176.087 40.3647C175.709 40.5939 175.245 40.7085 174.695 40.7085ZM174.695 40.1519C175.147 40.1519 175.504 40.0537 175.775 39.8614C176.046 39.6649 176.238 39.3989 176.362 39.0551C176.485 38.7114 176.542 38.3185 176.542 37.8724C176.542 37.4263 176.481 37.017 176.362 36.6692C176.238 36.3213 176.046 36.0471 175.775 35.8466C175.504 35.6501 175.147 35.5478 174.695 35.5478C174.244 35.5478 173.92 35.646 173.661 35.8466C173.403 36.043 173.218 36.3172 173.103 36.6692C172.988 37.017 172.931 37.4222 172.931 37.8724C172.931 38.3226 172.988 38.7114 173.103 39.0551C173.218 39.3989 173.403 39.669 173.661 39.8614C173.92 40.0578 174.264 40.1519 174.695 40.1519Z" fill="white"/>
<path d="M180.108 40.6144V35.1017H180.728L180.761 36.0307C180.925 35.7688 181.138 35.5396 181.413 35.335C181.684 35.1345 182.05 35.0322 182.509 35.0322H182.624V35.7074H182.501C182.197 35.7074 181.943 35.7524 181.729 35.8384C181.52 35.9243 181.34 36.0389 181.192 36.1822C181.044 36.3254 180.909 36.4768 180.79 36.6405V40.6185H180.113L180.108 40.6144Z" fill="white"/>
<path d="M185.39 33.9067C185.259 33.9067 185.148 33.8658 185.058 33.7798C184.967 33.6939 184.926 33.5875 184.926 33.4524C184.926 33.3174 184.972 33.211 185.058 33.1209C185.148 33.0309 185.259 32.9859 185.39 32.9859C185.521 32.9859 185.628 33.0309 185.718 33.1209C185.809 33.211 185.854 33.3215 185.854 33.4524C185.854 33.5834 185.809 33.6939 185.718 33.7798C185.628 33.8658 185.517 33.9067 185.39 33.9067ZM185.054 35.1017H185.731V40.6144H185.054V35.1017Z" fill="white"/>
<path d="M191.095 40.7167C190.504 40.7167 190.023 40.5857 189.658 40.3238C189.289 40.0619 189.022 39.714 188.85 39.2802C188.677 38.8464 188.595 38.3758 188.595 37.8642C188.595 37.3117 188.677 36.8206 188.841 36.3909C189.006 35.9612 189.264 35.6215 189.613 35.3718C189.962 35.1222 190.417 34.9994 190.975 34.9994C191.69 34.9994 192.252 35.2204 192.654 35.6583C193.056 36.1003 193.257 36.7306 193.257 37.5613C193.257 37.6268 193.257 37.6964 193.249 37.7742C193.249 37.8519 193.241 37.9051 193.233 37.9379H189.26C189.26 38.343 189.322 38.7154 189.445 39.051C189.568 39.3907 189.765 39.6608 190.032 39.8614C190.302 40.0619 190.651 40.1642 191.09 40.1642C191.562 40.1642 191.932 40.0537 192.194 39.8286C192.457 39.6035 192.592 39.2802 192.605 38.8546H193.27C193.261 39.2229 193.171 39.5421 192.999 39.8245C192.822 40.1028 192.576 40.3238 192.256 40.4834C191.932 40.643 191.546 40.7208 191.095 40.7208M189.264 37.369H192.592C192.58 36.796 192.436 36.35 192.162 36.0389C191.887 35.7238 191.488 35.5683 190.975 35.5683C190.463 35.5683 190.048 35.7238 189.769 36.0307C189.486 36.3377 189.318 36.7838 189.264 37.369Z" fill="white"/>
<path d="M197.907 40.7167C197.591 40.7167 197.3 40.6799 197.033 40.6062C196.766 40.5325 196.532 40.4179 196.331 40.2665C196.134 40.111 195.978 39.9186 195.867 39.6772C195.757 39.4398 195.703 39.1533 195.703 38.8178H196.38C196.38 39.3089 196.528 39.6567 196.82 39.8573C197.111 40.0578 197.484 40.1601 197.944 40.1601C198.338 40.1601 198.67 40.0783 198.941 39.9186C199.212 39.759 199.348 39.493 199.348 39.1288C199.348 38.8259 199.237 38.6009 199.015 38.4535C198.793 38.3062 198.4 38.167 197.837 38.0361C197.386 37.9256 197.016 37.8069 196.729 37.6718C196.442 37.5409 196.229 37.3772 196.097 37.1766C195.962 36.9802 195.896 36.7387 195.896 36.4441C195.896 36.2231 195.941 36.0226 196.032 35.8425C196.122 35.6624 196.253 35.511 196.421 35.3841C196.594 35.2572 196.799 35.1631 197.037 35.0935C197.275 35.0281 197.546 34.9953 197.845 34.9953C198.145 34.9953 198.408 35.0322 198.654 35.1058C198.9 35.1795 199.118 35.29 199.302 35.4414C199.487 35.5887 199.631 35.777 199.729 36.0062C199.832 36.2313 199.885 36.4973 199.885 36.8042H199.208C199.208 36.3581 199.077 36.0389 198.814 35.8507C198.551 35.6583 198.227 35.5642 197.845 35.5642C197.464 35.5642 197.152 35.6379 196.906 35.7811C196.664 35.9243 196.54 36.1494 196.54 36.4482C196.54 36.6201 196.59 36.7592 196.684 36.8738C196.778 36.9884 196.943 37.0866 197.168 37.1766C197.398 37.2667 197.71 37.3567 198.108 37.4549C198.551 37.5613 198.913 37.6841 199.192 37.8192C199.471 37.9583 199.676 38.1302 199.803 38.3389C199.93 38.5476 199.996 38.8137 199.996 39.137C199.996 39.403 199.947 39.6322 199.844 39.8327C199.746 40.0291 199.602 40.1969 199.413 40.3279C199.229 40.4589 199.007 40.5571 198.752 40.6185C198.498 40.684 198.215 40.7126 197.903 40.7126" fill="white"/>
</g>
<defs>
<clipPath id="clip0_894_15553">
<rect width="200" height="49" fill="white"/>
</clipPath>
</defs>
</svg>
