<?xml version="1.0" encoding="UTF-8"?>
<!DOCTYPE svg PUBLIC "-//W3C//DTD SVG 1.1//EN" "http://www.w3.org/Graphics/SVG/1.1/DTD/svg11.dtd">
<svg xmlns="http://www.w3.org/2000/svg" version="1.1" width="59px" height="49px" style="shape-rendering:geometricPrecision; text-rendering:geometricPrecision; image-rendering:optimizeQuality; fill-rule:evenodd; clip-rule:evenodd" xmlns:xlink="http://www.w3.org/1999/xlink">
<g><path style="opacity:0.924" fill="#fefefe" d="M 0.5,-0.5 C 6.5,-0.5 12.5,-0.5 18.5,-0.5C 18.0735,5.89265 17.5735,12.226 17,18.5C 23.4418,12.1214 29.7751,12.1214 36,18.5C 38.9963,12.3409 41.4963,6.00757 43.5,-0.5C 47.8333,-0.5 52.1667,-0.5 56.5,-0.5C 51.5828,11.1692 46.2495,22.6692 40.5,34C 36.7887,34.8253 33.122,34.6586 29.5,33.5C 25.214,25.7213 20.8807,25.888 16.5,34C 12.8333,34.6667 9.16667,34.6667 5.5,34C 4.25604,24.2163 4.25604,14.3829 5.5,4.5C 3.5,4.5 1.5,4.5 -0.5,4.5C -0.5,3.5 -0.5,2.5 -0.5,1.5C 0.338246,1.15829 0.67158,0.491622 0.5,-0.5 Z"/></g>
<g><path style="opacity:0.839" fill="#fefefe" d="M 18.5,48.5 C 16.5,48.5 14.5,48.5 12.5,48.5C 9.30104,46.0217 8.80104,43.0217 11,39.5C 16.2017,36.1801 19.7017,37.5134 21.5,43.5C 20.7401,45.3604 19.7401,47.027 18.5,48.5 Z"/></g>
<g><path style="opacity:0.845" fill="#fefefe" d="M 36.5,48.5 C 34.1667,48.5 31.8333,48.5 29.5,48.5C 27.6093,46.1643 27.1093,43.4976 28,40.5C 31.286,36.5149 34.6193,36.5149 38,40.5C 38.7185,43.4071 38.2185,46.0738 36.5,48.5 Z"/></g>
</svg>
