<?xml version="1.0" encoding="UTF-8"?>
<svg id="Layer_1" data-name="Layer 1" xmlns="http://www.w3.org/2000/svg" viewBox="0 0 1080 1080">
  <defs>
    <style>
      .cls-1 {
        fill-rule: evenodd;
      }

      .cls-1, .cls-2 {
        fill: #182245;
      }

      .cls-3 {
        fill: #fff;
      }
    </style>
  </defs>
  <path class="cls-3" d="M1080,540.02C1080,241.8,838.25.02,540-.01,241.75.01,0,241.8,0,540.02c0,298.23,241.75,540,539.97,540,298.25.02,540.03-241.76,540.03-540"/>
  <g>
    <path class="cls-2" d="M750.78,299.48c-.27.63-85.03,204.84-105.78,254.83-10.12-44.51-39.04-71.73-82.42-77.01-56.04-6.83-123.57,25.56-151.49,70.1,6.86-58.03,29.5-247.92,29.5-247.92h-206.17l-20.76,58.87,72.54,1.31s-9.57,320.75-9.57,320.96c0,.03-.01.06-.01.11,0,20.11,12.71,32.65,36.35,32.65,8.5,0,58.98.94,82.52,1.27,7.58.11,14.83-3.11,19.85-8.79,18.9-22.08,43.27-68.54,97.03-85.72,0,0,31.8,11.74,64.95,83.54,3.88,8.4,13.24,12.85,22.47,12.81,25.33-.05,73.49-.3,73.49-.3,16.96,0,39.8-21.05,56.76-58.59,37.95-83.99,158.5-358.12,158.5-358.12h-137.75Z"/>
    <path class="cls-1" d="M403.19,760.42c34.73,0,62.92,28.2,62.92,62.92s-28.19,62.92-62.92,62.92-62.91-28.19-62.91-62.92,28.19-62.92,62.91-62.92Z"/>
    <path class="cls-1" d="M611.82,760.42c34.72,0,62.91,28.2,62.91,62.92s-28.19,62.92-62.91,62.92-62.92-28.19-62.92-62.92,28.19-62.92,62.92-62.92Z"/>
  </g>
</svg>